# AST/ASF file generated using VICON BodyLanguage
# -----------------------------------------------
:version 1.10
:name VICON
:units
  mass 1.0
  length 0.45
  angle deg
:documentation
   .ast/.asf automatically generated from VICON data using
   VICON BodyBuilder and BodyLanguage model FoxedUp or BRILLIANT.MOD
:root
   order TX TY TZ RX RY RZ
   axis XYZ
   position 0 0 0  
   orientation 0 -0 0 
:bonedata
  begin
     id 1 
     name lhipjoint
     direction 0.515797 -0.759363 0.396637 
     length 2.47888 
     axis 0 -0 0  XYZ
  end
  begin
     id 2 
     name lfemur
     direction 0.34202 -0.939693 0  
     length 6.81885  
     axis 0 -0 20  XYZ
    dof rx ry rz
    limits (-160.0 20.0)
           (-70.0 70.0)
           (-60.0 70.0)
  end
  begin
     id 3 
     name ltibia
     direction 0.342037 -0.939687 0   
     length 7.89258   
     axis 0 -0 20   XYZ
    dof rx
    limits (-10.0 170.0)
  end
  begin
     id 4 
     name lfoot
     direction 0.173497 -0.476678 0.861787   
     length 2.51543   
     axis -90 -1.13533e-015 20   XYZ
    dof rx rz
    limits (-45.0 90.0)
           (-70.0 20.0)
  end
  begin
     id 5 
     name ltoes
     direction 1.53564e-011 -4.21897e-011 1   
     length 1.21388   
     axis -90 -1.13533e-015 20   XYZ
    dof rx
    limits (-90.0 20.0)
  end
  begin
     id 6 
     name rhipjoint
     direction -0.489454 -0.772941 0.403729   
     length 2.43534  
     axis 0 -0 0  XYZ 
  end
  begin
     id 7 
     name rfemur
     direction -0.34202 -0.939693 0   
     length 7.10357   
     axis 0 -0 -20   XYZ
    dof rx ry rz
    limits (-160.0 20.0)
           (-70.0 70.0)
           (-70.0 60.0)
  end
  begin
     id 8 
     name rtibia
     direction -0.34202 -0.939693 0   
     length 9.16127   
     axis 0 -0 -20   XYZ
    dof rx
    limits (-10.0 170.0)
 end
 begin
     id 9 
     name rfoot
     direction -0.270974 -0.748671 0.605033   
     length 1.74894  
     axis -90 1.13533e-015 -20   XYZ
    dof rx rz
    limits (-45.0 90.0)
           (-20.0 70.0)
  end
  begin
     id 10 
     name rtoes
     direction -1.53557e-011 -4.21759e-011 1   
     length 0.787585   
     axis -90 1.13533e-015 -20   XYZ
    dof rx
    limits (-90.0 20.0)
  end
  begin
     id 11 
     name lowerback
     direction -0.0140249 0.999561 0.0260968   
     length 2.16963   
     axis 0 -0 0   XYZ
    dof rx ry rz
    limits (-20.0 45.0)
           (-30.0 30.0)
           (-30.0 30.0)
  end
  begin
     id 12 
     name upperback
     direction 0.00860018 0.999959 -0.002711   
     length 2.1726   
     axis 0 -0 0   XYZ
    dof rx ry rz
    limits (-20.0 45.0)
           (-30.0 30.0)
           (-30.0 30.0)
  end
  begin
     id 13 
     name thorax
     direction 0.015211 0.999782 -0.0143191   
     length 2.17061   
     axis 0 -0 0   XYZ
    dof rx ry rz
    limits (-20.0 45.0)
           (-30.0 30.0)
           (-30.0 30.0)
  end
  begin
     id 14 
     name lowerneck
     direction -0.0140143 0.999447 0.030145   
     length 2.26749   
     axis 0 -0 0   XYZ
    dof rx ry rz
    limits (-20.0 45.0)
           (-30.0 30.0)
           (-30.0 30.0)
  end
  begin
     id 15 
     name upperneck
     direction 0.118062 0.961438 -0.248392   
     length 2.22728   
     axis 0 -0 0   XYZ
    dof rx ry rz
    limits (-20.0 45.0)
           (-30.0 30.0)
           (-30.0 30.0)
  end
  begin
     id 16
     name head
     direction 0.0431885 0.9954 -0.085514  
     length 2.28786  
     axis 0 -0 0   XYZ
    dof rx ry rz
    limits (-20.0 45.0)
           (-30.0 30.0)
           (-30.0 30.0)
  end
  begin
     id 17 
     name lclavicle
     direction 0.912126 0.409548 0.0172323  
     length 4.31571  
     axis 0 -0 0   XYZ
    dof ry rz
    limits (-20.0 10.0)
           (0.0 20.0)
  end
  begin
     id 18 
     name lhumerus
     direction 1 -4.48977e-011 1.93091e-027   
     length 5.13658   
     axis 180 -30 -90   XYZ
    dof rx ry rz
    limits (-60.0 90.0)
           (-90.0 90.0)
           (-90.0 90.0)
  end
  begin
     id 19
     name lradius
     direction 1 -4.48916e-011 6.84018e-027   
     length 3.22473   
     axis 180 -30 -90   XYZ
    dof rx
    limits (-10.0 170.0)
  end
  begin
     id 20
     name lwrist
     direction 1 -4.48987e-011 7.01981e-027   
     length 1.61236   
     axis -4.37994e-015 90 90   XYZ
    dof ry
    limits (-180.0 0.0)
 end
  begin
     id 21 
     name lhand
     direction 1 -4.49037e-011 1.40335e-026   
     length 0.936406   
     axis -8.96029e-015 90 90   XYZ
    dof rx rz
    limits (-90.0 90.0)
           (-45.0 45.0)
  end
  begin
     id 22 
     name lfingers
     direction 1 -4.48886e-011 2.8104e-026   
     length 0.754955   
     axis -1.79203e-014 90 90   XYZ
    dof rx
    limits (0.0 90.0)
  end
  begin
     id 23
     name lthumb
     direction 0.707107 -6.34937e-011 0.707107   
     length 1.08397   
     axis -90 45 -4.48555e-014   XYZ
    dof rx rz
    limits (-45.0 45.0)
           (-45.0 45.0)
  end
  begin
     id 24 
     name rclavicle
     direction -0.947962 0.317997 0.0156638   
     length 4.86918  
     axis 0 -0 0   XYZ 
    dof ry rz
    limits (-10.0 20.0)
           (-20.0 0.0)
  end
  begin
     id 25 
     name rhumerus
     direction -1 -4.48951e-011 2.80534e-018  
     length 5.60911   
     axis 180 30 90   XYZ
    dof rx ry rz
    limits (-90.0 60.0)
           (-90.0 90.0)
           (-90.0 90.0)
  end
  begin
     id 26 
     name rradius
     direction -1 -4.4898e-011 2.11315e-027   
     length 3.38704   
     axis 180 30 90   XYZ
    dof rx
    limits (-10.0 170.0)
  end
  begin
     id 27 
     name rwrist
     direction -1 -4.48933e-011 7.02314e-027   
     length 1.69352   
     axis -4.37994e-015 -90 -90   XYZ
    dof ry
    limits (-180.0 0.0)
  end
  begin
     id 28
     name rhand
     direction -1 -4.48937e-011 1.40458e-026   
     length 0.755878   
     axis -8.96029e-015 -90 -90   XYZ
    dof rx rz
    limits (-90.0 90.0)
           (-45.0 45.0)
  end
  begin
     id 29
     name rfingers
     direction -1 -4.4901e-011 2.80737e-026   
     length 0.609409   
     axis -1.79203e-014 -90 -90   XYZ
    dof rx
    limits (0.0 90.0)
  end
  begin
     id 30
     name rthumb
     direction -0.707107 -6.34968e-011 0.707107   
     length 0.874992   
     axis -90 -45 4.48555e-014   XYZ
    dof rx rz
    limits (-45.0 45.0)
           (-45.0 45.0)
  end
:hierarchy
  begin
    root lhipjoint rhipjoint lowerback
    lhipjoint lfemur
    lfemur ltibia
    ltibia lfoot
    lfoot ltoes
    rhipjoint rfemur
    rfemur rtibia
    rtibia rfoot
    rfoot rtoes
    lowerback upperback
    upperback thorax
    thorax lowerneck lclavicle rclavicle
    lowerneck upperneck
    upperneck head
    lclavicle lhumerus
    lhumerus lradius
    lradius lwrist
    lwrist lhand lthumb
    lhand lfingers
    rclavicle rhumerus
    rhumerus rradius
    rradius rwrist
    rwrist rhand rthumb
    rhand rfingers
  end

#!OML:ASF C:\ViconDB\ViconDB\414\Spring2016\041811\Spring2016.ASF
:FULLY-SPECIFIED
:DEGREES
35
root 8.59416 18.3634 -9.92252 -173.456 7.6129 180.556
lowerback 0.100473 7.04059 -1.46722
upperback 0.39588 9.39385 -0.511744
thorax 0.203018 4.69506 0.27946
lowerneck -19.8084 -3.43518 -12.5265
upperneck 20.8307 -5.27813 15.1761
head 10.7243 -1.88791 6.85101
rclavicle 5.91447e-014 -5.81445e-015
rhumerus -5.93965 -11.4993 -26.1128
rradius 41.4685
rwrist 30.9045
rhand -34.6532 -11.7782
rfingers 7.12502
rthumb -7.81007 -41.6139
lclavicle 5.91447e-014 -5.81445e-015
lhumerus -38.446 5.61841 10.4788
lradius 30.6265
lwrist -14.9455
lhand -29.586 19.9636
lfingers 7.12502
lthumb -2.91763 49.9234
rfemur 150.178 38.815 166.968
rtibia 4.53257
rfoot -68.0926 -51.6414
rtoes -43.8992
lfemur -31.8754 -7.24352 -15.9592
ltibia 40.3415
lfoot -15.9798 -16.9591
ltoes -7.82251
36
root 8.59099 18.3732 -9.93705 -173.361 9.10369 180.705
lowerback 0.138143 6.8843 -1.47422
upperback 0.415627 9.18547 -0.526966
thorax 0.206885 4.59096 0.265785
lowerneck -19.7646 -3.612 -12.9313
upperneck 20.6835 -5.46145 15.4245
head 10.7137 -1.98251 6.98426
rclavicle 1.0798e-014 -7.52897e-015
rhumerus -6.10005 -12.066 -26.0412
rradius 41.1882
rwrist 31.2247
rhand -34.7029 -11.4202
rfingers 7.12502
rthumb -7.85803 -41.2541
lclavicle 1.0798e-014 -7.52897e-015
lhumerus -38.1208 5.73967 10.1935
lradius 30.6522
lwrist -15.0572
lhand -29.523 19.8104
lfingers 7.12502
lthumb -2.85678 49.771
rfemur 150.752 37.6205 167.695
rtibia 5.43931
rfoot -67.2705 -52.1494
rtoes -44.1215
lfemur -31.613 -6.88563 -15.7614
ltibia 40.2453
lfoot -16.382 -15.8431
ltoes -8.09334
37
root 8.5934 18.3831 -9.95168 -173.241 10.5494 180.976
lowerback 0.145024 6.75271 -1.34769
upperback 0.447196 9.01026 -0.509618
thorax 0.254538 4.50331 0.219113
lowerneck -19.7364 -3.62682 -12.9748
upperneck 20.471 -5.41019 15.3303
head 10.6208 -1.96929 6.95224
rclavicle -1.77757e-014 -4.09993e-015
rhumerus -6.58907 -12.1296 -25.7079
rradius 41.3291
rwrist 30.9848
rhand -34.7005 -11.9006
rfingers 7.12502
rthumb -7.85569 -41.7347
lclavicle -1.77757e-014 -4.09993e-015
lhumerus -37.5127 5.83128 10.0502
lradius 30.5521
lwrist -15.3413
lhand -29.4795 19.7018
lfingers 7.12502
lthumb -2.81483 49.663
rfemur 151.129 36.4582 168.529
rtibia 6.60651
rfoot -66.5199 -52.6394
rtoes -44.2946
lfemur -31.3035 -6.38466 -15.4536
ltibia 40.101
lfoot -16.741 -14.8734
ltoes -8.38302
38
root 8.59207 18.3937 -9.97238 -173.344 12.1121 180.988
lowerback 0.303286 6.58622 -1.55938
upperback 0.515388 8.78701 -0.479566
thorax 0.203313 4.39154 0.347243
lowerneck -19.7491 -3.53076 -12.8625
upperneck 20.4055 -5.22214 15.0686
head 10.5553 -1.89817 6.85589
rclavicle -3.21161e-014 7.92654e-015
rhumerus -6.85997 -12.0708 -25.3989
rradius 41.2568
rwrist 30.5253
rhand -34.3944 -11.868
rfingers 7.12502
rthumb -7.5603 -41.7128
lclavicle -3.21161e-014 7.92654e-015
lhumerus -37.3825 5.70279 10.0277
lradius 30.9016
lwrist -14.8918
lhand -29.4694 19.6533
lfingers 7.12502
lthumb -2.80505 49.6146
rfemur 151.483 35.1213 168.981
rtibia 7.53244
rfoot -65.5701 -52.9212
rtoes -44.7318
lfemur -30.7819 -6.18915 -15.4077
ltibia 39.9432
lfoot -17.0767 -13.6312
ltoes -8.40312
39
root 8.59712 18.4055 -9.98659 -173.134 13.589 181.15
lowerback 0.233001 6.39594 -1.6844
upperback 0.504349 8.53407 -0.45459
thorax 0.213418 4.26444 0.448503
lowerneck -19.8084 -3.47588 -12.8589
upperneck 20.3299 -5.1024 14.9803
head 10.5162 -1.84878 6.836
rclavicle 3.78933e-014 4.87022e-015
rhumerus -7.33486 -11.6495 -25.0169
rradius 41.6046
rwrist 29.5225
rhand -34.0469 -12.2305
rfingers 7.12502
rthumb -7.22485 -42.0872
lclavicle 3.78933e-014 4.87022e-015
lhumerus -36.9092 5.48201 10.0366
lradius 30.9857
lwrist -14.4557
lhand -29.5005 19.8743
lfingers 7.12502
lthumb -2.83506 49.8352
rfemur 152.067 34.0077 169.773
rtibia 8.49241
rfoot -64.6124 -53.2009
rtoes -44.9872
lfemur -30.5665 -5.6554 -15.1899
ltibia 39.7728
lfoot -17.3372 -12.7023
ltoes -8.40407
40
root 8.59908 18.4151 -10.0063 -173.147 15.1863 181.494
lowerback 0.247332 6.19668 -1.60588
upperback 0.645163 8.27052 -0.336447
thorax 0.348638 4.13143 0.535845
lowerneck -20.0476 -3.57086 -13.1516
upperneck 20.3447 -5.19786 15.2466
head 10.6004 -1.8832 6.98007
rclavicle -3.30231e-014 -2.5842e-015
rhumerus -7.56537 -12.6209 -24.9598
rradius 41.5152
rwrist 30.431
rhand -33.9107 -11.9374
rfingers 7.12502
rthumb -7.09339 -41.7985
lclavicle -3.30231e-014 -2.5842e-015
lhumerus -36.5755 5.04651 10.1382
lradius 31.1062
lwrist -13.7222
lhand -29.5413 19.9648
lfingers 7.12502
lthumb -2.87449 49.9252
rfemur 152.444 32.6427 170.595
rtibia 9.38507
rfoot -63.317 -53.2511
rtoes -45.5057
lfemur -29.9712 -5.17733 -14.8359
ltibia 39.5806
lfoot -17.6866 -11.5845
ltoes -8.93504
41
root 8.59611 18.424 -10.0282 -172.991 16.8389 181.532
lowerback 0.213014 6.01233 -1.74115
upperback 0.57155 8.02415 -0.394783
thorax 0.287143 4.00845 0.549933
lowerneck -20.2454 -3.81372 -13.2205
upperneck 20.5041 -5.56192 15.3146
head 10.7633 -2.05141 6.97102
rclavicle 3.32343e-014 1.19271e-015
rhumerus -8.04752 -12.5861 -24.5826
rradius 41.573
rwrist 31.9053
rhand -33.6246 -12.6883
rfingers 7.12502
rthumb -6.81717 -42.5586
lclavicle 3.32343e-014 1.19271e-015
lhumerus -36.0908 5.25656 9.81234
lradius 31.0742
lwrist -13.9015
lhand -29.6107 19.8335
lfingers 7.12502
lthumb -2.94154 49.793
rfemur 153.04 31.3734 171.231
rtibia 10.3229
rfoot -62.1038 -53.823
rtoes -45.9358
lfemur -29.655 -4.46539 -14.8695
ltibia 39.3767
lfoot -18.0649 -10.6098
ltoes -9.08673
42
root 8.6047 18.4424 -10.0416 -172.891 18.5996 182.002
lowerback 0.411328 5.82537 -1.69019
upperback 0.518338 7.76822 -0.257441
thorax 0.115356 3.88165 0.63623
lowerneck -20.5347 -4.57385 -12.8618
upperneck 21.0548 -5.54475 14.7917
head 11.0185 -1.62503 6.81766
rclavicle -6.44062e-014 5.36719e-015
rhumerus -8.51752 -12.1527 -24.3804
rradius 41.7037
rwrist 31.4425
rhand -33.7803 -12.9835
rfingers 7.12502
rthumb -6.96745 -42.8488
lclavicle -6.44062e-014 5.36719e-015
lhumerus -35.9376 4.18147 9.88491
lradius 31.3485
lwrist -13.4868
lhand -29.722 20.2409
lfingers 7.12502
lthumb -3.04896 50.1988
rfemur 153.206 30.9913 171.614
rtibia 11.2058
rfoot -62.4298 -53.4902
rtoes -46.5463
lfemur -29.0881 -3.73292 -14.3836
ltibia 39.1223
lfoot -18.2369 -9.55736
ltoes -9.53919
43
root 8.60938 18.4573 -10.0619 -172.803 20.3441 182.187
lowerback 0.569138 5.68603 -1.63565
upperback 0.428167 7.578 -0.338792
thorax -0.0425923 3.78826 0.503605
lowerneck -20.6331 -4.3921 -12.4836
upperneck 21.2324 -5.33162 14.4219
head 11.0417 -1.54031 6.64784
rclavicle 1.36913e-014 -6.16232e-015
rhumerus -9.24676 -12.3805 -24.2748
rradius 41.6422
rwrist 31.4989
rhand -34.0301 -12.9632
rfingers 7.12502
rthumb -7.20864 -42.8204
lclavicle 1.36913e-014 -6.16232e-015
lhumerus -35.1778 4.1523 9.61397
lradius 30.9499
lwrist -14.5839
lhand -29.8249 20.1893
lfingers 7.12502
lthumb -3.14838 50.1458
rfemur 153.241 31.0343 171.527
rtibia 12.1917
rfoot -63.0055 -53.1296
rtoes -46.8013
lfemur -28.5411 -3.06908 -14.2334
ltibia 38.8184
lfoot -18.5042 -8.49354
ltoes -9.40778
44
root 8.61059 18.4763 -10.0832 -172.753 22.228 182.282
lowerback 0.395386 5.57287 -1.812
upperback 0.566679 7.43329 -0.30338
thorax 0.172291 3.71354 0.663976
lowerneck -20.7454 -4.49773 -12.7268
upperneck 21.1267 -5.45364 14.6291
head 11.0593 -1.59681 6.74732
rclavicle 7.02207e-014 -4.96962e-015
rhumerus -9.83643 -12.545 -23.9044
rradius 41.7331
rwrist 31.0724
rhand -34.1565 -12.6577
rfingers 7.12502
rthumb -7.33061 -42.5107
lclavicle 7.02207e-014 -4.96962e-015
lhumerus -34.5595 4.47455 9.5057
lradius 30.8232
lwrist -15.0278
lhand -29.7404 20.2378
lfingers 7.12502
lthumb -3.06672 50.1955
rfemur 153.375 30.8168 171.446
rtibia 13.1914
rfoot -62.9839 -52.9425
rtoes -46.906
lfemur -27.9037 -2.34607 -14.213
ltibia 38.4341
lfoot -18.7675 -7.35548
ltoes -9.64103
45
root 8.60944 18.5001 -10.1005 -172.66 24.1157 182.499
lowerback 0.396252 5.28574 -2.01938
upperback 0.68092 7.05252 -0.210269
thorax 0.261769 3.52124 0.880705
lowerneck -21.2667 -4.44162 -12.6324
upperneck 21.3567 -5.33298 14.3851
head 11.2127 -1.55666 6.66895
rclavicle -9.95414e-014 7.35503e-015
rhumerus -9.74 -13.1543 -24.0967
rradius 41.4655
rwrist 31.2244
rhand -34.5265 -11.2603
rfingers 7.12502
rthumb -7.68776 -41.1006
lclavicle -9.95414e-014 7.35503e-015
lhumerus -34.4074 4.46817 9.29546
lradius 30.7511
lwrist -15.003
lhand -29.8139 20.134
lfingers 7.12502
lthumb -3.13774 50.0906
rfemur 153.477 30.4699 171.562
rtibia 14.2371
rfoot -62.1183 -53.0617
rtoes -46.8274
lfemur -27.214 -1.67093 -14.0699
ltibia 37.9615
lfoot -18.9836 -6.13925
ltoes -9.75114
46
root 8.61705 18.5265 -10.1212 -172.403 25.9528 182.818
lowerback 0.296034 5.04919 -2.10717
upperback 0.548658 6.73563 -0.177255
thorax 0.177338 3.36339 0.966685
lowerneck -21.2245 -4.5673 -12.3727
upperneck 21.6093 -5.61781 14.3898
head 11.3385 -1.6573 6.59317
rclavicle 8.24956e-015 7.95139e-016
rhumerus -10.1898 -13.739 -24.2276
rradius 41.2868
rwrist 31.4791
rhand -34.6682 -10.9862
rfingers 7.12502
rthumb -7.82455 -40.8214
lclavicle 8.24956e-015 7.95139e-016
lhumerus -34.3619 3.67064 9.11418
lradius 31.0366
lwrist -14.6961
lhand -29.919 20.0304
lfingers 7.12502
lthumb -3.23919 49.9855
rfemur 153.564 30.0846 171.879
rtibia 15.3781
rfoot -59.7502 -53.4701
rtoes -46.4565
lfemur -26.6053 -0.870259 -13.8367
ltibia 37.3826
lfoot -19.1351 -5.05066
ltoes -10.1544
